<?xml version="1.0" standalone="no"?>
<!DOCTYPE svg PUBLIC "-//W3C//DTD SVG 20010904//EN"
 "http://www.w3.org/TR/2001/REC-SVG-20010904/DTD/svg10.dtd">
<svg version="1.0" xmlns="http://www.w3.org/2000/svg"
 width="512.000000pt" height="512.000000pt" viewBox="0 0 512.000000 512.000000"
 preserveAspectRatio="xMidYMid meet">

<g transform="translate(0.000000,512.000000) scale(0.100000,-0.100000)"
fill="#000000" stroke="none">
<path d="M2509 4558 l-45 -93 -103 -14 -103 -14 76 -76 75 -76 -18 -100 c-10
-55 -18 -101 -17 -102 1 -1 43 19 93 45 l92 47 96 -48 c89 -44 95 -45 90 -25
-3 13 -12 59 -20 103 l-14 80 75 76 75 76 -93 12 c-51 7 -98 14 -105 16 -6 2
-31 45 -54 94 -23 50 -45 91 -49 91 -3 0 -26 -42 -51 -92z"/>
<path d="M1628 4296 l-47 -94 -88 -12 c-48 -6 -94 -13 -102 -16 -10 -3 9 -28
59 -79 l73 -74 -17 -97 c-9 -53 -15 -98 -13 -101 3 -2 45 17 93 43 l89 48 90
-47 c49 -25 91 -44 93 -42 2 2 -4 47 -13 100 l-18 97 73 73 c39 40 68 75 64
78 -5 2 -51 10 -102 17 l-93 13 -47 94 -47 93 -47 -94z"/>
<path d="M3398 4296 l-47 -94 -88 -12 c-48 -6 -94 -13 -102 -16 -10 -3 9 -28
58 -78 l74 -74 -18 -97 c-9 -53 -15 -98 -13 -101 3 -2 45 17 94 43 l88 47 90
-47 c49 -26 91 -45 93 -43 2 2 -4 47 -13 100 l-17 97 72 73 c40 41 69 76 65
79 -5 2 -51 10 -102 17 l-93 13 -47 94 -47 93 -47 -94z"/>
<path d="M955 3621 c-37 -74 -49 -90 -72 -95 -37 -7 -155 -26 -168 -26 -5 0
24 -33 64 -74 l74 -74 -12 -79 c-7 -43 -15 -90 -18 -105 l-5 -28 93 49 93 49
89 -44 c49 -25 91 -43 93 -41 3 3 -3 49 -12 103 l-17 98 79 73 c44 40 75 73
69 73 -10 0 -114 16 -173 25 -29 5 -37 15 -77 95 -25 50 -47 90 -50 90 -3 0
-25 -40 -50 -89z"/>
<path d="M4066 3621 c-50 -98 -41 -92 -175 -112 l-84 -12 78 -71 78 -71 -17
-99 c-9 -54 -15 -100 -12 -103 2 -2 44 16 93 40 l89 45 93 -48 93 -48 -5 26
c-3 15 -11 62 -18 106 l-12 79 72 70 c39 38 70 72 68 74 -3 2 -33 8 -68 13
-140 22 -125 12 -174 110 -25 50 -47 90 -50 90 -3 0 -25 -40 -49 -89z"/>
<path d="M718 2736 l-47 -94 -100 -12 c-56 -7 -101 -16 -101 -19 0 -3 32 -38
71 -77 l71 -72 -16 -97 c-9 -54 -15 -99 -13 -101 2 -3 44 17 92 42 l88 47 93
-46 c52 -26 94 -42 94 -36 0 6 -7 52 -16 101 l-17 90 72 72 c39 39 71 74 71
77 0 3 -46 12 -101 19 l-102 13 -43 93 c-24 52 -45 94 -47 94 -1 0 -23 -42
-49 -94z"/>
<path d="M4307 2739 l-44 -96 -102 -13 c-55 -7 -101 -16 -101 -19 0 -3 32 -38
71 -77 l71 -72 -16 -88 c-9 -49 -16 -95 -16 -102 0 -7 36 6 92 34 l92 46 93
-46 c51 -25 93 -43 93 -40 0 4 -7 49 -16 101 l-16 95 71 72 c39 39 71 74 71
77 0 3 -45 12 -101 19 l-100 12 -48 97 -49 96 -45 -96z"/>
<path d="M958 1837 l-46 -94 -101 -13 c-56 -7 -101 -16 -101 -19 0 -3 32 -38
71 -77 l71 -72 -16 -95 c-9 -52 -16 -97 -16 -101 0 -3 43 15 95 41 l94 47 91
-48 c57 -30 90 -43 90 -34 0 7 -7 53 -16 102 l-16 88 71 72 c39 39 71 74 71
78 0 3 -45 12 -101 19 l-100 12 -44 94 c-24 51 -45 93 -47 93 -2 0 -24 -42
-50 -93z"/>
<path d="M4066 1839 l-46 -96 -100 -12 c-55 -8 -100 -16 -100 -19 0 -4 32 -39
71 -78 l71 -72 -16 -88 c-9 -49 -16 -95 -16 -102 0 -8 34 5 91 34 l91 47 94
-46 c52 -26 94 -44 94 -41 0 4 -7 49 -16 101 l-16 95 71 72 c39 39 71 74 71
78 0 3 -45 12 -101 19 l-101 12 -48 96 -48 96 -46 -96z"/>
<path d="M1630 1189 c-21 -44 -40 -85 -42 -90 -2 -6 -48 -17 -103 -26 -55 -8
-102 -17 -105 -20 -2 -2 29 -34 70 -71 l73 -68 -12 -79 c-7 -44 -15 -93 -18
-109 l-6 -29 94 51 94 51 93 -49 c50 -27 92 -44 92 -38 0 6 -7 53 -16 104
l-16 94 78 73 79 74 -90 12 c-50 7 -98 15 -108 18 -10 2 -37 43 -62 94 -25 49
-48 89 -50 89 -3 0 -23 -36 -45 -81z"/>
<path d="M3396 1181 c-25 -49 -51 -91 -58 -94 -7 -2 -56 -10 -108 -17 l-94
-13 78 -74 78 -73 -16 -94 c-9 -51 -16 -99 -16 -105 0 -7 42 11 92 38 l93 50
94 -51 94 -50 -6 28 c-3 16 -11 65 -18 108 l-12 80 74 67 c40 37 71 70 68 73
-3 3 -49 12 -103 20 -54 8 -99 16 -101 18 -1 2 -21 42 -43 91 -22 48 -43 87
-46 87 -3 0 -26 -40 -50 -89z"/>
<path d="M2511 946 l-43 -94 -87 -12 c-137 -18 -133 -12 -50 -96 l73 -73 -13
-83 c-7 -46 -15 -94 -18 -107 -5 -22 1 -20 91 29 l96 52 96 -51 c87 -46 96
-49 91 -28 -3 12 -11 59 -18 105 l-13 83 73 73 c83 84 87 78 -50 96 l-87 12
-43 94 c-24 51 -46 94 -49 94 -3 0 -25 -43 -49 -94z"/>
</g>
</svg>
