<?xml version="1.0" standalone="no"?>
<!DOCTYPE svg PUBLIC "-//W3C//DTD SVG 20010904//EN"
 "http://www.w3.org/TR/2001/REC-SVG-20010904/DTD/svg10.dtd">
<svg version="1.0" xmlns="http://www.w3.org/2000/svg"
 width="2500.000000pt" height="2500.000000pt" viewBox="0 0 2500.000000 2500.000000"
 preserveAspectRatio="xMidYMid meet">
<metadata>
Created by potrace 1.11, written by Peter Selinger 2001-2013
</metadata>
<g transform="translate(0.000000,2500.000000) scale(0.100000,-0.100000)"
fill="#000000" stroke="none">
<path d="M12497 24904 c-2 -5 -48 -144 -101 -309 -54 -165 -100 -307 -103
-315 -3 -8 -7 -19 -9 -25 -1 -5 -41 -129 -89 -275 -48 -146 -88 -271 -89 -279
-2 -8 -10 -17 -19 -20 -9 -3 -305 -6 -658 -5 -530 1 -638 -2 -623 -12 11 -7
24 -17 29 -22 6 -4 56 -41 113 -82 57 -41 125 -91 152 -110 26 -19 77 -56 112
-81 392 -283 587 -425 608 -445 22 -21 23 -27 13 -56 -6 -18 -57 -175 -113
-348 -56 -173 -133 -412 -172 -530 -38 -118 -78 -240 -88 -271 l-18 -56 267
193 c146 107 275 200 286 208 11 8 129 94 262 191 l243 176 337 -245 c186
-134 365 -265 398 -289 33 -24 119 -87 191 -139 l131 -95 -18 56 c-9 31 -40
126 -67 211 -28 85 -58 180 -67 210 -10 30 -21 64 -25 75 -5 11 -29 85 -55
165 -105 329 -137 426 -144 445 -4 11 -13 34 -18 51 l-10 31 184 134 c101 74
191 140 201 147 9 7 158 116 331 242 173 127 318 233 323 238 5 5 -281 8 -634
8 -669 -1 -668 -1 -668 40 0 8 -4 22 -9 32 -5 9 -43 125 -86 257 -152 474
-184 572 -238 739 -30 92 -57 164 -60 160z"/>
<path d="M7078 23387 c-15 -45 -72 -224 -128 -397 -56 -173 -126 -387 -155
-475 -28 -88 -60 -188 -70 -222 -18 -59 -21 -63 -49 -64 -17 0 -309 -1 -648
-2 -340 0 -618 -3 -618 -6 0 -4 44 -38 97 -75 53 -38 104 -75 112 -82 9 -7
194 -142 411 -299 217 -157 401 -292 407 -298 10 -10 4 -38 -28 -137 -58 -179
-221 -682 -295 -910 -35 -107 -62 -195 -61 -196 1 -1 47 31 102 71 55 41 118
87 140 103 22 16 150 110 285 208 135 98 303 220 374 272 71 51 135 96 141 99
11 3 348 -235 713 -504 155 -114 219 -161 283 -206 l67 -46 -18 57 c-24 74
-125 387 -155 477 -13 39 -64 198 -115 355 -50 157 -97 300 -103 317 -6 18 -9
34 -6 36 2 3 54 40 114 83 61 43 115 82 120 87 6 4 179 130 385 280 207 150
388 281 404 293 l28 20 -642 0 c-415 -1 -647 3 -655 9 -7 6 -22 39 -33 75 -11
36 -54 169 -95 295 -41 127 -116 358 -166 515 -51 157 -98 299 -104 317 l-12
32 -27 -82z"/>
<path d="M17885 23448 c-2 -7 -22 -69 -44 -138 -22 -69 -70 -215 -105 -325
-164 -508 -236 -726 -244 -742 -10 -17 -45 -18 -657 -17 l-648 0 25 -20 c14
-12 97 -73 184 -135 87 -63 313 -227 501 -363 l342 -248 -16 -53 c-8 -28 -23
-74 -33 -102 -10 -27 -32 -95 -50 -150 -63 -199 -262 -811 -281 -864 -11 -29
-17 -56 -15 -59 3 -2 27 11 53 30 26 19 239 173 473 343 234 169 446 323 471
341 26 19 50 34 54 34 4 0 40 -23 79 -52 39 -29 103 -75 141 -103 39 -28 178
-130 310 -225 435 -315 490 -355 503 -367 17 -16 22 -16 17 0 -6 19 -205 638
-220 682 -182 558 -183 565 -155 565 7 0 106 69 210 148 14 10 198 144 410
297 212 153 391 283 398 290 10 9 -134 11 -620 11 -348 -1 -642 0 -653 2 -14
2 -25 17 -33 45 -18 57 -189 588 -212 657 -10 30 -53 162 -95 293 -42 130 -78
237 -81 237 -3 0 -6 -6 -9 -12z"/>
<path d="M3147 19500 c-3 -8 -56 -170 -117 -360 -62 -190 -143 -442 -182 -560
-38 -118 -75 -231 -81 -250 -6 -19 -14 -39 -18 -44 -4 -5 -297 -8 -654 -9
-356 0 -643 -3 -638 -7 4 -4 157 -115 338 -247 441 -320 518 -376 530 -386 6
-4 47 -35 93 -68 45 -33 80 -64 78 -67 -2 -4 -20 -59 -40 -122 -56 -176 -235
-726 -261 -805 -42 -127 -95 -292 -95 -299 0 -4 6 -2 13 4 6 6 109 81 227 167
118 85 251 181 295 213 44 33 161 117 260 189 99 72 189 138 200 147 58 47 44
54 390 -200 18 -13 473 -344 535 -389 14 -10 61 -44 105 -77 44 -32 81 -57 83
-56 1 2 -2 14 -7 27 -6 13 -56 166 -112 339 -55 173 -116 360 -134 415 -90
276 -147 456 -144 459 25 18 200 146 219 158 28 19 350 252 365 265 6 5 109
80 230 167 121 87 224 162 228 166 5 4 -284 8 -643 8 -358 0 -652 1 -654 3 -1
2 -34 103 -73 224 -346 1070 -328 1018 -336 995z"/>
<path d="M21837 19500 c-4 -8 -34 -100 -68 -205 -33 -104 -76 -235 -94 -290
-47 -144 -222 -686 -229 -710 -6 -20 -14 -20 -651 -19 -355 1 -645 -1 -645 -5
0 -5 308 -230 534 -391 127 -90 328 -235 339 -245 7 -6 44 -33 82 -60 39 -27
73 -54 77 -59 3 -5 -2 -32 -12 -60 -10 -28 -36 -107 -58 -176 -47 -146 -238
-738 -288 -890 -19 -57 -34 -108 -34 -112 0 -4 26 11 58 35 50 38 116 86 207
152 15 11 197 143 404 293 207 150 381 271 388 270 7 -2 54 -33 105 -71 51
-37 143 -103 203 -147 61 -44 120 -87 132 -96 13 -9 62 -45 110 -80 117 -84
107 -78 273 -199 218 -159 234 -169 226 -148 -4 10 -27 79 -51 153 -24 74 -79
245 -123 380 -235 718 -227 690 -206 705 149 107 848 615 948 689 l88 64 -652
0 c-358 0 -653 2 -654 4 -1 1 -33 98 -70 213 -290 894 -333 1022 -339 1005z"/>
<path d="M1687 14062 c-25 -80 -236 -726 -316 -972 l-67 -205 -642 0 c-352 0
-643 -3 -645 -5 -4 -4 193 -152 339 -255 23 -16 137 -100 254 -185 256 -188
299 -219 372 -270 31 -22 60 -44 63 -50 6 -9 -56 -210 -175 -570 -26 -80 -85
-260 -130 -400 -45 -140 -85 -259 -88 -265 -4 -5 6 -2 22 8 25 17 512 368 562
406 12 9 32 23 44 31 13 8 35 24 49 36 125 98 383 274 393 268 7 -4 87 -62
178 -128 91 -67 176 -129 190 -139 534 -389 666 -485 668 -482 2 2 -32 110
-74 242 -43 131 -79 240 -80 243 0 3 -3 12 -7 20 -5 14 -109 338 -112 350 -1
3 -21 64 -44 135 -24 72 -51 156 -61 187 l-18 57 52 35 c28 20 224 161 436
315 212 154 424 309 472 343 48 35 87 65 88 68 0 3 -292 5 -649 5 l-649 -1
-20 61 c-11 33 -68 209 -127 390 -59 182 -134 413 -167 515 -33 102 -65 201
-71 220 -17 54 -21 53 -40 -8z"/>
<path d="M23238 13971 c-27 -80 -87 -265 -134 -411 -47 -146 -116 -357 -153
-470 l-68 -205 -641 0 c-352 0 -643 -2 -645 -5 -3 -3 45 -41 105 -85 142 -102
496 -361 526 -383 12 -9 37 -27 55 -40 130 -93 324 -236 336 -247 11 -11 7
-32 -27 -137 -22 -67 -91 -278 -152 -468 -62 -190 -132 -408 -157 -485 -25
-77 -48 -144 -51 -149 -9 -16 76 43 343 239 151 111 691 501 703 509 11 6 225
-144 642 -450 227 -167 415 -301 418 -299 2 2 -53 178 -123 392 -70 213 -135
415 -146 448 -11 33 -44 133 -73 222 -49 148 -52 163 -37 176 9 8 135 101 281
207 146 106 321 234 390 285 69 50 178 129 242 175 64 47 117 87 117 90 1 3
-291 5 -648 5 l-648 0 -66 200 c-224 686 -327 1003 -327 1013 0 6 -3 13 -7 15
-5 3 -29 -61 -55 -142z"/>
<path d="M3147 8713 c-2 -4 -9 -24 -15 -43 -6 -19 -63 -197 -127 -395 -118
-363 -243 -749 -250 -772 -3 -10 -147 -13 -654 -15 l-649 -3 255 -185 c141
-102 261 -190 267 -195 6 -6 40 -31 76 -55 36 -25 67 -47 70 -50 4 -4 366
-268 378 -275 1 -1 -13 -49 -32 -106 -82 -252 -171 -526 -261 -804 -54 -165
-100 -306 -102 -312 -9 -24 14 -13 88 43 41 31 90 67 109 80 19 12 94 66 165
118 151 111 122 90 350 255 242 175 281 203 307 224 28 23 32 22 86 -18 26
-19 55 -41 64 -47 9 -7 42 -31 73 -53 31 -22 95 -68 143 -103 48 -35 97 -71
110 -80 13 -9 45 -33 71 -52 27 -19 92 -66 146 -105 53 -38 133 -97 178 -130
182 -134 221 -159 213 -139 -4 10 -34 100 -66 199 -344 1065 -332 1026 -328
1030 2 2 131 96 288 210 157 114 391 284 521 378 l236 172 -649 3 -648 2 -10
23 c-9 21 -174 532 -260 802 -23 72 -45 139 -50 150 -5 11 -25 72 -45 135 -39
122 -40 126 -48 113z"/>
<path d="M21833 8708 c0 -7 -16 -60 -36 -118 -31 -93 -178 -546 -289 -890 -22
-69 -47 -144 -56 -167 l-15 -43 -651 0 -650 0 89 -66 c50 -36 101 -74 115 -84
14 -10 203 -148 420 -305 217 -158 402 -294 411 -303 15 -16 13 -27 -26 -147
-24 -71 -94 -285 -155 -475 -62 -190 -132 -407 -157 -483 -25 -76 -44 -139
-42 -141 2 -2 164 113 359 256 195 142 373 271 395 287 22 15 94 67 160 116
66 48 125 89 132 92 9 4 194 -121 239 -162 6 -5 37 -28 68 -50 32 -22 110 -79
174 -126 64 -47 216 -157 337 -244 121 -87 225 -162 231 -167 11 -8 -25 129
-46 177 -5 11 -47 142 -95 290 -83 259 -170 528 -221 684 -14 40 -23 77 -22
82 2 7 101 81 198 149 12 8 108 78 214 155 106 77 292 212 413 300 l220 160
-651 5 -650 5 -22 65 c-12 36 -68 207 -124 380 -98 302 -147 454 -220 678 -31
93 -46 122 -47 90z"/>
<path d="M7090 4740 c-6 -25 -29 -97 -50 -160 -21 -63 -58 -178 -83 -255 -25
-77 -91 -280 -146 -450 -56 -171 -101 -316 -101 -323 0 -8 -23 -12 -72 -12
-40 0 -333 0 -650 0 -318 -1 -578 -4 -578 -8 0 -4 97 -77 215 -162 119 -85
225 -163 238 -172 12 -9 114 -83 225 -165 112 -81 220 -160 240 -175 21 -15
56 -39 79 -55 44 -29 50 -41 34 -71 -5 -9 -49 -138 -96 -287 -48 -148 -131
-405 -184 -570 -54 -165 -102 -311 -106 -324 -7 -24 -6 -24 36 8 62 45 724
527 881 639 71 52 134 92 141 89 9 -4 436 -313 999 -724 l47 -34 -9 28 c-4 15
-15 48 -23 73 -9 25 -70 214 -137 420 -67 206 -146 449 -176 540 -30 91 -54
171 -54 178 0 6 10 17 23 23 20 11 115 80 144 104 19 16 672 489 691 500 9 6
19 13 22 16 3 3 43 33 89 67 l83 61 -648 0 c-356 0 -651 4 -655 8 -3 5 -14 31
-22 58 -15 47 -167 518 -299 925 -33 102 -65 201 -73 220 l-13 35 -12 -45z"/>
<path d="M17851 4649 c-24 -74 -56 -172 -71 -219 -38 -113 -247 -761 -267
-825 -8 -27 -19 -53 -22 -58 -4 -4 -300 -8 -657 -8 -611 0 -648 -1 -628 -17
12 -9 66 -48 119 -87 54 -38 125 -90 159 -115 33 -25 108 -79 166 -120 58 -41
110 -79 117 -85 6 -5 115 -84 241 -174 l230 -165 -14 -45 c-8 -25 -17 -54 -19
-64 -2 -9 -17 -57 -33 -105 -16 -48 -45 -136 -65 -197 -19 -60 -85 -263 -145
-450 -61 -187 -113 -350 -117 -363 -5 -19 13 -9 97 52 56 41 108 79 113 83 6
5 122 89 258 188 137 99 319 231 405 294 87 62 163 115 169 118 7 3 84 -47
170 -110 87 -63 228 -165 313 -226 85 -62 166 -121 180 -131 110 -82 395 -287
397 -286 1 1 -15 56 -36 122 -22 65 -89 274 -151 464 -61 190 -134 414 -162
498 -28 85 -46 157 -42 162 5 4 173 126 374 270 422 304 651 470 664 481 5 5
-173 8 -395 8 -901 1 -909 1 -909 12 0 7 -41 138 -91 293 -95 293 -101 312
-228 700 l-77 238 -43 -133z"/>
<path d="M12490 3320 c0 -13 -95 -312 -234 -735 -29 -88 -77 -235 -106 -327
l-54 -167 -653 2 c-491 1 -649 -1 -640 -9 7 -7 203 -150 437 -318 234 -169
435 -315 447 -324 13 -9 52 -37 88 -62 60 -41 65 -48 60 -73 -4 -26 -41 -139
-272 -852 -114 -351 -115 -356 -111 -360 2 -2 26 13 53 33 28 21 115 84 195
142 80 58 150 108 155 113 12 10 143 104 428 311 l218 157 37 -28 c20 -15 53
-39 73 -53 34 -24 257 -185 729 -529 113 -82 206 -145 208 -141 2 4 -10 48
-27 97 -16 48 -75 230 -131 403 -56 173 -128 396 -161 495 -84 259 -87 227 28
310 105 74 638 459 738 532 33 25 93 69 134 99 l75 54 -650 0 -650 0 -51 158
c-28 86 -95 292 -148 457 -53 165 -100 309 -104 320 -5 11 -28 81 -51 155 -39
126 -60 174 -60 140z"/>
</g>
</svg>
